<svg width="32" height="31" viewBox="0 0 32 31" fill="none" xmlns="http://www.w3.org/2000/svg">
<path fill-rule="evenodd" clip-rule="evenodd" d="M0.5 1.9375C0.5 1.68057 0.608649 1.43417 0.802046 1.25249C0.995443 1.07081 1.25775 0.96875 1.53125 0.96875H4.625C4.85503 0.96881 5.07844 1.04112 5.2597 1.17417C5.44095 1.30723 5.56964 1.49339 5.62531 1.70306L6.46063 4.84375H30.4062C30.5577 4.84388 30.7072 4.87534 30.8442 4.93588C30.9812 4.99642 31.1024 5.08457 31.1991 5.19406C31.2957 5.30354 31.3655 5.43169 31.4035 5.56938C31.4415 5.70707 31.4468 5.85093 31.4189 5.99075L28.3252 21.4907C28.281 21.7127 28.1555 21.9132 27.9706 22.0576C27.7857 22.2019 27.5529 22.281 27.3125 22.2812H8.75C8.50958 22.281 8.27679 22.2019 8.09188 22.0576C7.90697 21.9132 7.78155 21.7127 7.73731 21.4907L4.64563 6.01981L3.82063 2.90625H1.53125C1.25775 2.90625 0.995443 2.80419 0.802046 2.62251C0.608649 2.44083 0.5 2.19443 0.5 1.9375ZM10.8125 22.2812C9.71848 22.2812 8.66927 22.6895 7.89568 23.4162C7.1221 24.1429 6.6875 25.1285 6.6875 26.1562C6.6875 27.184 7.1221 28.1696 7.89568 28.8963C8.66927 29.623 9.71848 30.0312 10.8125 30.0312C11.9065 30.0312 12.9557 29.623 13.7293 28.8963C14.5029 28.1696 14.9375 27.184 14.9375 26.1562C14.9375 25.1285 14.5029 24.1429 13.7293 23.4162C12.9557 22.6895 11.9065 22.2812 10.8125 22.2812ZM25.25 22.2812C24.156 22.2812 23.1068 22.6895 22.3332 23.4162C21.5596 24.1429 21.125 25.1285 21.125 26.1562C21.125 27.184 21.5596 28.1696 22.3332 28.8963C23.1068 29.623 24.156 30.0312 25.25 30.0312C26.344 30.0312 27.3932 29.623 28.1668 28.8963C28.9404 28.1696 29.375 27.184 29.375 26.1562C29.375 25.1285 28.9404 24.1429 28.1668 23.4162C27.3932 22.6895 26.344 22.2812 25.25 22.2812ZM10.8125 24.2188C10.2655 24.2188 9.74089 24.4229 9.35409 24.7862C8.9673 25.1496 8.75 25.6424 8.75 26.1562C8.75 26.6701 8.9673 27.1629 9.35409 27.5263C9.74089 27.8896 10.2655 28.0938 10.8125 28.0938C11.3595 28.0938 11.8841 27.8896 12.2709 27.5263C12.6577 27.1629 12.875 26.6701 12.875 26.1562C12.875 25.6424 12.6577 25.1496 12.2709 24.7862C11.8841 24.4229 11.3595 24.2188 10.8125 24.2188ZM25.25 24.2188C24.703 24.2188 24.1784 24.4229 23.7916 24.7862C23.4048 25.1496 23.1875 25.6424 23.1875 26.1562C23.1875 26.6701 23.4048 27.1629 23.7916 27.5263C24.1784 27.8896 24.703 28.0938 25.25 28.0938C25.797 28.0938 26.3216 27.8896 26.7084 27.5263C27.0952 27.1629 27.3125 26.6701 27.3125 26.1562C27.3125 25.6424 27.0952 25.1496 26.7084 24.7862C26.3216 24.4229 25.797 24.2188 25.25 24.2188Z" fill="#8D4AC2"/>
</svg>
