<svg width="19" height="18" viewBox="0 0 19 18" fill="none" xmlns="http://www.w3.org/2000/svg">
<path d="M7.64949e-08 3.31579C3.43134e-08 1.48737 1.4915 -1.23528e-07 3.325 -2.75382e-07C4.826 -3.99697e-07 6.08285 1.00421 6.49515 2.36842L13.2971 2.36842C13.4672 2.36747 14.9891 2.394 16.0816 3.48063C16.758 4.15137 17.1 5.04947 17.1 6.14842L19 6.14842L16.15 9.93789L13.3 6.14842L15.2 6.14842C15.2 4.42137 13.7427 4.26884 13.3 4.26316L6.49515 4.26316C6.08285 5.62737 4.826 6.63158 3.325 6.63158C1.4915 6.63158 1.18655e-07 5.14326 7.64949e-08 3.31579ZM4.75 3.31579C4.75 2.53232 4.11065 1.89474 3.325 1.89474C2.53935 1.89474 1.9 2.53232 1.9 3.31579C1.9 4.09926 2.53935 4.73684 3.325 4.73684C4.11065 4.73684 4.75 4.09926 4.75 3.31579ZM12.5049 15.6316L5.69715 15.6316C4.17145 15.6268 1.9 14.6113 1.9 11.8326L2.72978e-07 11.8326L2.85 8.04316L5.7 11.8326L3.8 11.8326C3.8 13.5654 5.26205 13.7283 5.7 13.7368L12.5049 13.7368C12.9171 12.3726 14.174 11.3684 15.675 11.3684C17.5085 11.3684 19 12.8558 19 14.6842C19 16.5126 17.5085 18 15.675 18C14.174 18 12.9171 16.9958 12.5049 15.6316ZM17.1 14.6842C17.1 13.9007 16.4606 13.2632 15.675 13.2632C14.8894 13.2632 14.25 13.9007 14.25 14.6842C14.25 15.4677 14.8894 16.1053 15.675 16.1053C16.4606 16.1053 17.1 15.4677 17.1 14.6842Z" fill="white"/>
</svg>
