<svg width="16" height="14" viewBox="0 0 16 14" fill="none" xmlns="http://www.w3.org/2000/svg">
<path d="M3.92285 1.42857L9.81152 1.42857C10.6611 1.42857 11.4448 1.63653 12.1626 2.05246C12.8804 2.46838 13.4492 3.03181 13.8691 3.74275C14.2891 4.45368 14.499 5.22991 14.499 6.07143L15.4365 6.07143L13.5615 8.85714L11.6865 6.07143L12.624 6.07143C12.624 5.29762 12.3506 4.63988 11.8037 4.09821C11.2568 3.55655 10.5928 3.28571 9.81152 3.28571L3.92285 3.28571C3.75684 3.56622 3.53223 3.79111 3.24902 3.96038C2.96582 4.12965 2.65332 4.21429 2.31152 4.21429C1.79395 4.21429 1.35205 4.03292 0.985839 3.6702C0.619628 3.30748 0.436523 2.86979 0.436523 2.35714C0.436523 1.84449 0.619628 1.40681 0.985839 1.04409C1.35205 0.681363 1.79394 0.500001 2.31152 0.500001C2.65332 0.500001 2.96582 0.584637 3.24902 0.753907C3.53223 0.923179 3.75684 1.14807 3.92285 1.42857ZM1.37402 2.35714C1.37402 2.6183 1.46436 2.83836 1.64502 3.0173C1.82568 3.19624 2.04785 3.28572 2.31152 3.28572C2.5752 3.28572 2.79736 3.19624 2.97803 3.0173C3.15869 2.83836 3.24902 2.62072 3.24902 2.3644C3.24902 2.10807 3.15625 1.88802 2.9707 1.70424C2.78516 1.52046 2.56299 1.42857 2.3042 1.42857C2.04541 1.42857 1.82568 1.51804 1.64502 1.69699C1.46436 1.87593 1.37402 2.09598 1.37402 2.35714ZM3.24902 7.92857C3.24902 8.70238 3.52246 9.36012 4.06934 9.90179C4.61621 10.4435 5.28027 10.7143 6.06152 10.7143L11.9502 10.7143C12.1162 10.4338 12.3408 10.2089 12.624 10.0396C12.9072 9.87035 13.2197 9.78571 13.5615 9.78571C14.0791 9.78571 14.521 9.96708 14.8872 10.3298C15.2534 10.6925 15.4365 11.1302 15.4365 11.6429C15.4365 12.1555 15.2534 12.5932 14.8872 12.9559C14.521 13.3186 14.0791 13.5 13.5615 13.5C13.2197 13.5 12.9072 13.4154 12.624 13.2461C12.3408 13.0768 12.1162 12.8519 11.9502 12.5714L6.06152 12.5714C5.21191 12.5714 4.42822 12.3635 3.71045 11.9475C2.99268 11.5316 2.42383 10.9682 2.00391 10.2573C1.58398 9.54632 1.37402 8.77009 1.37402 7.92857L0.436523 7.92857L2.31152 5.14286L4.18652 7.92857L3.24902 7.92857ZM12.624 11.6356C12.624 11.8919 12.7144 12.112 12.895 12.2958C13.0757 12.4795 13.2979 12.5714 13.5615 12.5714C13.8252 12.5714 14.0474 12.482 14.228 12.303C14.4087 12.1241 14.499 11.904 14.499 11.6429C14.499 11.3817 14.4063 11.1616 14.2207 10.9827C14.0352 10.8038 13.813 10.7143 13.5542 10.7143C13.2954 10.7143 13.0757 10.8038 12.895 10.9827C12.7144 11.1616 12.624 11.3793 12.624 11.6356Z" fill="#8D4AC2"/>
</svg>
