<svg width="19" height="18" viewBox="0 0 19 18" fill="none" xmlns="http://www.w3.org/2000/svg">
<path d="M18.5403 3.68874C18.2455 2.9669 17.8204 2.31277 17.2889 1.76298C16.757 1.21154 16.1298 0.773325 15.4415 0.472155C14.7277 0.15862 13.9622 -0.0018648 13.1894 1.63478e-05C12.1051 1.63478e-05 11.0472 0.314 10.1279 0.90708C9.90796 1.04895 9.69903 1.20478 9.50109 1.37457C9.30315 1.20478 9.09421 1.04895 8.87428 0.90708C7.95496 0.314 6.89709 1.63478e-05 5.81282 1.63478e-05C5.03206 1.63478e-05 4.27549 0.158171 3.56071 0.472155C2.87012 0.774509 2.24771 1.20943 1.71327 1.76298C1.18103 2.31215 0.75586 2.96643 0.461858 3.68874C0.156152 4.43998 0 5.23773 0 6.05874C0 6.83323 0.149554 7.64028 0.446463 8.46129C0.694987 9.14741 1.05128 9.8591 1.50654 10.5778C2.22792 11.7151 3.21981 12.9013 4.45144 14.1037C6.49241 16.0969 8.51359 17.4738 8.59937 17.5296L9.12061 17.8831C9.35153 18.039 9.64844 18.039 9.87937 17.8831L10.4006 17.5296C10.4864 17.4715 12.5054 16.0969 14.5485 14.1037C15.7802 12.9013 16.7721 11.7151 17.4934 10.5778C17.9487 9.8591 18.3072 9.14741 18.5535 8.46129C18.8504 7.64028 19 6.83323 19 6.05874C19.0022 5.23773 18.846 4.43998 18.5403 3.68874ZM9.50109 16.0434C9.50109 16.0434 1.67149 10.7383 1.67149 6.05874C1.67149 3.68874 3.52552 1.76763 5.81282 1.76763C7.42053 1.76763 8.8149 2.71656 9.50109 4.10274C10.1873 2.71656 11.5817 1.76763 13.1894 1.76763C15.4767 1.76763 17.3307 3.68874 17.3307 6.05874C17.3307 10.7383 9.50109 16.0434 9.50109 16.0434Z" fill="white"/>
</svg>
