<svg width="16" height="14" viewBox="0 0 16 14" fill="none" xmlns="http://www.w3.org/2000/svg">
<path d="M15.0736 3.16409C14.8409 2.64276 14.5053 2.17033 14.0857 1.77326C13.6657 1.375 13.1706 1.05851 12.6272 0.841001C12.0637 0.614559 11.4593 0.498653 10.8492 0.500012C9.99317 0.500012 9.15801 0.726778 8.43223 1.15511C8.2586 1.25758 8.09365 1.37012 7.93738 1.49274C7.78111 1.37012 7.61617 1.25758 7.44253 1.15511C6.71676 0.726778 5.88159 0.500012 5.02559 0.500012C4.4092 0.500012 3.81191 0.614235 3.24761 0.841001C2.70241 1.05937 2.21103 1.37348 1.78911 1.77326C1.36892 2.16989 1.03325 2.64242 0.801149 3.16409C0.559801 3.70665 0.436523 4.2828 0.436523 4.87575C0.436523 5.43511 0.554593 6.01798 0.788994 6.61093C0.985197 7.10646 1.26648 7.62046 1.6259 8.1395C2.19541 8.9609 2.97848 9.81757 3.95081 10.686C5.56211 12.1255 7.15778 13.12 7.2255 13.1603L7.637 13.4156C7.81931 13.5281 8.05372 13.5281 8.23603 13.4156L8.64753 13.1603C8.71525 13.1183 10.3092 12.1255 11.9222 10.686C12.8945 9.81757 13.6776 8.9609 14.2471 8.1395C14.6065 7.62046 14.8896 7.10646 15.084 6.61093C15.3184 6.01798 15.4365 5.43511 15.4365 4.87575C15.4382 4.2828 15.315 3.70665 15.0736 3.16409Z" fill="#8D4AC2"/>
</svg>
