<svg width="16" height="15" viewBox="0 0 16 15" fill="none" xmlns="http://www.w3.org/2000/svg">
<path fill-rule="evenodd" clip-rule="evenodd" d="M16 7.03436C16 10.9004 12.418 14.0344 8 14.0344C7.20765 14.0354 6.41859 13.9326 5.653 13.7284C5.069 14.0244 3.728 14.5924 1.472 14.9624C1.272 14.9944 1.12 14.7864 1.199 14.6004C1.553 13.7644 1.873 12.6504 1.969 11.6344C0.744 10.4044 0 8.79436 0 7.03436C0 3.16836 3.582 0.0343628 8 0.0343628C12.418 0.0343628 16 3.16836 16 7.03436ZM5 7.03436C5 7.29958 4.89464 7.55393 4.70711 7.74147C4.51957 7.92901 4.26522 8.03436 4 8.03436C3.73478 8.03436 3.48043 7.92901 3.29289 7.74147C3.10536 7.55393 3 7.29958 3 7.03436C3 6.76915 3.10536 6.51479 3.29289 6.32726C3.48043 6.13972 3.73478 6.03436 4 6.03436C4.26522 6.03436 4.51957 6.13972 4.70711 6.32726C4.89464 6.51479 5 6.76915 5 7.03436ZM9 7.03436C9 7.29958 8.89464 7.55393 8.70711 7.74147C8.51957 7.92901 8.26522 8.03436 8 8.03436C7.73478 8.03436 7.48043 7.92901 7.29289 7.74147C7.10536 7.55393 7 7.29958 7 7.03436C7 6.76915 7.10536 6.51479 7.29289 6.32726C7.48043 6.13972 7.73478 6.03436 8 6.03436C8.26522 6.03436 8.51957 6.13972 8.70711 6.32726C8.89464 6.51479 9 6.76915 9 7.03436ZM12 8.03436C12.2652 8.03436 12.5196 7.92901 12.7071 7.74147C12.8946 7.55393 13 7.29958 13 7.03436C13 6.76915 12.8946 6.51479 12.7071 6.32726C12.5196 6.13972 12.2652 6.03436 12 6.03436C11.7348 6.03436 11.4804 6.13972 11.2929 6.32726C11.1054 6.51479 11 6.76915 11 7.03436C11 7.29958 11.1054 7.55393 11.2929 7.74147C11.4804 7.92901 11.7348 8.03436 12 8.03436Z" fill="#20004D"/>
</svg>
